<?xml version="1.0" encoding="UTF-8"?><svg id="a" xmlns="http://www.w3.org/2000/svg" viewBox="0 0 103.68446 44.19537"><defs><style>.b{fill:none;}.c{fill:#fff;}</style></defs><polygon class="b" points="3.54662 21.90332 20.47777 38.83447 20.47777 4.97217 3.54662 21.90332"/><path class="b" d="M53.6057,11.52905h-2.85986v10.16821h2.85986c3.18164,0,5.42041-2.13049,5.42041-5.09766,0-2.96643-2.23877-5.07056-5.42041-5.07056Z"/><path class="b" d="M72.82494,22.39795c1.86133,0,3.37109-1.59082,3.37109-3.50623,0-1.91467-1.50977-3.47913-3.37109-3.47913-1.88818,0-3.4248,1.56445-3.4248,3.47913,0,1.91541,1.53662,3.50623,3.4248,3.50623Z"/><path class="b" d="M55.73021,33.84106c-.979,0-1.7832,.84644-1.7832,1.89746,0,1.05237,.8042,1.90796,1.7832,1.90796,.98047,0,1.78467-.85559,1.78467-1.90796,0-1.05103-.8042-1.89746-1.78467-1.89746Z"/><polygon class="c" points="3.54662 38.83447 20.47777 38.83447 3.54662 21.90332 3.54662 38.83447"/><polygon class="c" points="3.54662 4.97217 3.54662 21.90332 20.47777 4.97217 3.54662 4.97217"/><path class="c" d="M20.47777,4.97217V38.83447c9.35107,0,16.93115-7.58032,16.93115-16.93115S29.82884,4.97217,20.47777,4.97217Z"/><path class="c" d="M63.7722,16.59961c0-5.4209-4.50293-9.25024-10.86865-9.25024h-6.76855V25.87695h6.76855c6.36572,0,10.86865-3.85645,10.86865-9.27734Zm-10.1665,5.09766h-2.85986V11.52905h2.85986c3.18164,0,5.42041,2.10413,5.42041,5.07056,0,2.96716-2.23877,5.09766-5.42041,5.09766Z"/><path class="c" d="M72.82494,26.2002c4.26123,0,7.71289-3.28955,7.71289-7.30847,0-4.01819-3.45166-7.28149-7.71289-7.28149-4.28809,0-7.76709,3.26331-7.76709,7.28149,0,4.01892,3.479,7.30847,7.76709,7.30847Zm0-10.7876c1.86133,0,3.37109,1.56445,3.37109,3.47913,0,1.91541-1.50977,3.50623-3.37109,3.50623-1.88818,0-3.4248-1.59082-3.4248-3.50623,0-1.91467,1.53662-3.47913,3.4248-3.47913Z"/><polygon class="c" points="100.35131 25.87695 92.77367 15.22388 99.81273 7.34937 94.31029 7.34937 87.46019 15.25098 87.46019 7.34937 82.84886 7.34937 82.84886 25.87695 87.46019 25.87695 87.46019 20.83423 89.56371 18.54138 94.79564 25.87695 100.35131 25.87695"/><path class="c" d="M49.80492,32.16016c.73193,0,1.40283,.34131,1.88818,.85693l.73242-.70215c-.67041-.69006-1.60889-1.11401-2.62061-1.11401-1.97998,0-3.66992,1.67188-3.66992,3.66101,0,1.9906,1.68994,3.67151,3.66992,3.67151,1.01172,0,1.9502-.43298,2.62061-1.11401l-.73242-.70068c-.48535,.51562-1.15625,.85547-1.88818,.85547-1.41162,0-2.6084-1.2373-2.6084-2.71228,0-1.46448,1.19678-2.70178,2.6084-2.70178Z"/><path class="c" d="M55.73021,32.95398c-1.53662,0-2.8042,1.24792-2.8042,2.78455,0,1.5365,1.26758,2.79492,2.8042,2.79492s2.80566-1.25842,2.80566-2.79492c0-1.53662-1.26904-2.78455-2.80566-2.78455Zm0,4.6925c-.979,0-1.7832-.85559-1.7832-1.90796,0-1.05103,.8042-1.89746,1.7832-1.89746,.98047,0,1.78467,.84644,1.78467,1.89746,0,1.05237-.8042,1.90796-1.78467,1.90796Z"/><path class="c" d="M65.48021,32.95398c-.83398,0-1.48535,.51575-1.64893,1.26892-.26953-.77271-.93994-1.26892-1.78467-1.26892-.69189,0-1.24805,.34131-1.51562,.88708v-.76233h-1.021v5.33142h1.021v-3.33179c0-.73218,.53516-1.2373,1.30957-1.2373,.66016,0,1.12451,.54724,1.12451,1.33057v3.23853h1v-3.33179c0-.73218,.54541-1.2373,1.30957-1.2373,.65967,0,1.13477,.54724,1.13477,1.33057v3.23853h.98975v-3.39331c0-1.20581-.80469-2.06287-1.91895-2.06287Z"/><path class="c" d="M74.66234,32.95398c-.83447,0-1.48535,.51575-1.64941,1.26892-.26904-.77271-.93945-1.26892-1.78467-1.26892-.69141,0-1.24805,.34131-1.51562,.88708v-.76233h-1.02051v5.33142h1.02051v-3.33179c0-.73218,.53516-1.2373,1.30957-1.2373,.66016,0,1.12305,.54724,1.12305,1.33057v3.23853h1.00146v-3.33179c0-.73218,.5459-1.2373,1.30957-1.2373,.66016,0,1.13525,.54724,1.13525,1.33057v3.23853h.98926v-3.39331c0-1.20581-.8042-2.06287-1.91846-2.06287Z"/><path class="c" d="M81.45189,36.3894c0,.70068-.64941,1.25708-1.46436,1.25708-.72168,0-1.22656-.5459-1.22656-1.35022v-3.21753h-1.00146v3.39197c0,1.22827,.81494,2.06274,1.99072,2.06274,.73193,0,1.38184-.36084,1.70166-.88696v.76367h1.021v-5.33142h-1.021v3.31067Z"/><path class="c" d="M86.61205,32.95398c-.73193,0-1.39209,.37134-1.7002,.90808v-.78333h-1.021v5.33142h1.021v-3.31067c0-.70056,.65967-1.25842,1.47461-1.25842,.72168,0,1.22705,.54724,1.22705,1.35156v3.21753h.98926v-3.39331c0-1.22693-.81494-2.06287-1.99072-2.06287Z"/><path class="c" d="M90.41478,30.96484c-.3418,0-.61963,.2887-.61963,.60742,0,.33081,.27783,.61938,.61963,.61938,.33936,0,.60693-.28857,.60693-.61938,0-.31873-.26758-.60742-.60693-.60742Z"/><rect class="c" x="89.89867" y="33.07874" width="1.021" height="5.33142"/><path class="c" d="M94.07396,37.64648c-.29932,0-.55762-.2677-.55762-.63904v-3.06262h1.2583v-.86609h-1.2583v-1.46436h-1v1.46436h-.79395v.86609h.79395v3.13477c0,.85547,.57715,1.45386,1.40283,1.45386,.38184,0,.7832-.14429,1.07178-.38037l-.38037-.70215c-.10352,.11426-.30957,.19556-.53662,.19556Z"/><path class="c" d="M99.48363,33.07874l-1.61914,4.20691-1.71094-4.20691h-1.09326l2.28857,5.36304-.26807,.56677c-.17578,.30981-.40137,.41199-.73193,.41199-.20605,0-.44336-.05115-.64941-.16541l-.22705,.78491c.27783,.14429,.64941,.22705,1.01025,.22705,.76367-.01062,1.33057-.41357,1.7124-1.3728l2.35156-5.81555h-1.06299Z"/></svg>